# xmcd CD database file
# Copyright (C) 1993-1998 Ti Kan
#
# Track frame offsets:
#  182
#  12495
#  25115
#  36065
#  47157
#  58850
#  70942
#  82762
#  93057
#  104662
#
# Disc length: 1543 seconds
#
# Revision: 1
# Processed by: cddbd v1.4b41PL1 Copyright (c) Steve Scherf et al.
# Submitted via: CDWizzard Release:4.35
#
DISCID=7806050a
DTITLE=Charts - Greatest Hits - The Charts
DYEAR=1900
DGENRE=
TTITLE0=Deserie
TTITLE1=All Because Of You
TTITLE2=Why Do You Cry
TTITLE3=Zoop
TTITLE4=I Told You So
TTITLE5=Dance Girl
TTITLE6=You're The Reason
TTITLE7=I've Been Wondering
TTITLE8=Baby Be Mine
TTITLE9=My Diane
EXTD=
EXTT0=
EXTT1=
EXTT2=
EXTT3=
EXTT4=
EXTT5=
EXTT6=
EXTT7=
EXTT8=
EXTT9=
PLAYORDER=
